<svg xmlns="http://www.w3.org/2000/svg" viewBox="0 0 74 74" width="74" height="74"><path d="M49.5 55.2c5.9 0 10.7-4.8 10.7-10.7s-4.8-10.7-10.7-10.7h-.1c-.9-8.5-8.2-15.1-16.9-15.1-6.9 0-12.9 4.1-15.5 10h-.3c-7.2.1-13.2 6-13.2 13.3 0 7.3 5.9 13.2 13.2 13.2" fill="#fff"/><linearGradient id="a" gradientUnits="userSpaceOnUse" x1="42.2875" y1="57.777" x2="62.6125" y2="37.452"><stop offset="0" stop-color="#cfe7f7"/><stop offset="1" stop-color="#e1edf8"/></linearGradient><path d="M63.8 55.2c3.7 0 6.7-3 6.7-6.7s-3-6.7-6.7-6.7h-.1c-.6-5.3-5.1-9.5-10.6-9.5-4.3 0-8.1 2.6-9.8 6.3h-.2c-4.6 0-8.3 3.7-8.3 8.3 0 4.6 3.7 8.3 8.3 8.3" fill="url(#a)"/></svg>