<!--Generator: Adobe Illustrator 21.0.2, SVG Export Plug-In . SVG Version: 6.00 Build 0)--><svg xmlns="http://www.w3.org/2000/svg" viewBox="0 0 74 74"><path d="M49.5 43.5c5.9 0 10.7-4.8 10.7-10.7s-4.8-10.7-10.7-10.7h-.1C48.5 13.6 41.3 7 32.5 7 25.6 7 19.6 11.1 17 17h-.3c-7.2.1-13.2 6-13.2 13.3 0 7.3 5.9 13.2 13.2 13.2" fill="#fff"/><linearGradient id="a" gradientUnits="userSpaceOnUse" x1="42.2875" y1="46.0134" x2="62.6125" y2="25.6883"><stop offset="0" stop-color="#cfe7f7"/><stop offset="1" stop-color="#e1edf8"/></linearGradient><path d="M63.8 43.5c3.7 0 6.7-3 6.7-6.7s-3-6.7-6.7-6.7h-.1c-.6-5.3-5.1-9.5-10.6-9.5-4.3 0-8.1 2.6-9.8 6.3h-.2c-4.6 0-8.3 3.7-8.3 8.3 0 4.6 3.7 8.3 8.3 8.3" fill="url(#a)"/><linearGradient id="b" gradientUnits="userSpaceOnUse" x1="11.185" y1="55.3024" x2="18.0726" y2="55.3024"><stop offset="0" stop-color="#00adee"/><stop offset="1" stop-color="#00bcf1"/></linearGradient><path d="M13.2 59.8c-.3 0-.7-.1-1-.3-1-.6-1.3-1.8-.7-2.7l2.9-5c.6-1 1.8-1.3 2.7-.7 1 .6 1.3 1.8.7 2.7l-2.9 5c-.4.6-1 1-1.7 1z" fill="url(#b)"/><linearGradient id="c" gradientUnits="userSpaceOnUse" x1="27.2968" y1="55.3024" x2="34.1844" y2="55.3024"><stop offset="0" stop-color="#00adee"/><stop offset="1" stop-color="#00bcf1"/></linearGradient><path d="M29.3 59.8c-.3 0-.7-.1-1-.3-1-.6-1.3-1.8-.7-2.7l2.9-5c.6-1 1.8-1.3 2.7-.7 1 .6 1.3 1.8.7 2.7l-2.9 5c-.3.6-1 1-1.7 1z" fill="url(#c)"/><linearGradient id="d" gradientUnits="userSpaceOnUse" x1="43.4086" y1="55.3024" x2="50.2963" y2="55.3024"><stop offset="0" stop-color="#00adee"/><stop offset="1" stop-color="#00bcf1"/></linearGradient><path d="M45.4 59.8c-.3 0-.7-.1-1-.3-1-.6-1.3-1.8-.7-2.7l2.9-5c.6-1 1.8-1.3 2.7-.7 1 .6 1.3 1.8.7 2.7l-2.9 5c-.3.6-1 1-1.7 1z" fill="url(#d)"/><linearGradient id="e" gradientUnits="userSpaceOnUse" x1="16.185" y1="62.4824" x2="23.0726" y2="62.4824"><stop offset="0" stop-color="#00adee"/><stop offset="1" stop-color="#00bcf1"/></linearGradient><path d="M18.2 67c-.3 0-.7-.1-1-.3-1-.6-1.3-1.8-.7-2.7l2.9-5c.6-1 1.8-1.3 2.7-.7 1 .6 1.3 1.8.7 2.7l-2.9 5c-.4.6-1 1-1.7 1z" fill="url(#e)"/><linearGradient id="f" gradientUnits="userSpaceOnUse" x1="32.7973" y1="62.4824" x2="39.6849" y2="62.4824"><stop offset="0" stop-color="#00adee"/><stop offset="1" stop-color="#00bcf1"/></linearGradient><path d="M34.8 67c-.3 0-.7-.1-1-.3-1-.6-1.3-1.8-.7-2.7l2.9-5c.6-1 1.8-1.3 2.7-.7 1 .6 1.3 1.8.7 2.7l-2.9 5c-.3.6-1 1-1.7 1z" fill="url(#f)"/><linearGradient id="g" gradientUnits="userSpaceOnUse" x1="49.4086" y1="62.4824" x2="56.2963" y2="62.4824"><stop offset="0" stop-color="#00adee"/><stop offset="1" stop-color="#00bcf1"/></linearGradient><path d="M51.4 67c-.3 0-.7-.1-1-.3-1-.6-1.3-1.8-.7-2.7l2.9-5c.6-1 1.8-1.3 2.7-.7 1 .6 1.3 1.8.7 2.7l-2.9 5c-.3.6-1 1-1.7 1z" fill="url(#g)"/></svg>