<!--Generator: Adobe Illustrator 21.0.2, SVG Export Plug-In . SVG Version: 6.00 Build 0)--><svg xmlns="http://www.w3.org/2000/svg" viewBox="0 0 74 74"><path d="M49.5 46.1c5.9 0 10.7-4.8 10.7-10.7s-4.8-10.7-10.7-10.7h-.1c-.9-8.5-8.2-15.1-16.9-15.1-6.9 0-12.9 4.1-15.5 10h-.3c-7.3 0-13.2 5.9-13.2 13.2C3.5 40.1 9.4 46 16.7 46" fill="#fff"/><linearGradient id="a" gradientUnits="userSpaceOnUse" x1="42.2875" y1="48.6283" x2="62.6125" y2="28.3032"><stop offset="0" stop-color="#cfe7f7"/><stop offset="1" stop-color="#e1edf8"/></linearGradient><path d="M63.8 46.1c3.7 0 6.7-3 6.7-6.7s-3-6.7-6.7-6.7h-.1c-.6-5.3-5.1-9.5-10.6-9.5-4.3 0-8.1 2.6-9.8 6.3h-.2c-4.6 0-8.3 3.7-8.3 8.3 0 4.6 3.7 8.3 8.3 8.3" fill="url(#a)"/><linearGradient id="b" gradientUnits="userSpaceOnUse" x1="12.6669" y1="54.8682" x2="25.6669" y2="54.8682"><stop offset="0" stop-color="#00adee"/><stop offset="1" stop-color="#00bcf1"/></linearGradient><path d="M24.2 56.4h-10c-.8 0-1.5-.7-1.5-1.5s.7-1.5 1.5-1.5h10c.8 0 1.5.7 1.5 1.5s-.7 1.5-1.5 1.5z" fill="url(#b)"/><linearGradient id="c" gradientUnits="userSpaceOnUse" x1="29.1669" y1="54.8682" x2="47.1669" y2="54.8682"><stop offset="0" stop-color="#00adee"/><stop offset="1" stop-color="#00bcf1"/></linearGradient><path d="M45.7 56.4h-15c-.8 0-1.5-.7-1.5-1.5s.7-1.5 1.5-1.5h15c.8 0 1.5.7 1.5 1.5s-.7 1.5-1.5 1.5z" fill="url(#c)"/><linearGradient id="d" gradientUnits="userSpaceOnUse" x1="12.6669" y1="62.8682" x2="35.6669" y2="62.8682"><stop offset="0" stop-color="#00adee"/><stop offset="1" stop-color="#00bcf1"/></linearGradient><path d="M34.2 64.4h-20c-.8 0-1.5-.7-1.5-1.5s.7-1.5 1.5-1.5h20c.8 0 1.5.7 1.5 1.5s-.7 1.5-1.5 1.5z" fill="url(#d)"/><linearGradient id="e" gradientUnits="userSpaceOnUse" x1="39.1669" y1="62.8682" x2="57.1669" y2="62.8682"><stop offset="0" stop-color="#00adee"/><stop offset="1" stop-color="#00bcf1"/></linearGradient><path d="M55.7 64.4h-15c-.8 0-1.5-.7-1.5-1.5s.7-1.5 1.5-1.5h15c.8 0 1.5.7 1.5 1.5s-.7 1.5-1.5 1.5z" fill="url(#e)"/></svg>