<!--Generator: Adobe Illustrator 21.0.2, SVG Export Plug-In . SVG Version: 6.00 Build 0)--><svg xmlns="http://www.w3.org/2000/svg" viewBox="0 0 74 74"><linearGradient id="a" gradientUnits="userSpaceOnUse" x1="10.9367" y1="51.4639" x2="39.8645" y2="22.5361"><stop offset="0" stop-color="#fcb627"/><stop offset="1" stop-color="#ffcd22"/></linearGradient><circle fill="url(#a)" cx="25.401" cy="37" r="20.455"/><path fill="#FFF" d="M36.054 37.701h-10c-.829 0-1.5-.671-1.5-1.5s.671-1.5 1.5-1.5h10c.829 0 1.5.671 1.5 1.5s-.671 1.5-1.5 1.5zM57.554 37.701h-15c-.829 0-1.5-.671-1.5-1.5s.671-1.5 1.5-1.5h15c.829 0 1.5.671 1.5 1.5s-.671 1.5-1.5 1.5zM36.054 52.201h-10c-.829 0-1.5-.671-1.5-1.5s.671-1.5 1.5-1.5h10c.829 0 1.5.671 1.5 1.5s-.671 1.5-1.5 1.5zM57.554 52.201h-15c-.829 0-1.5-.671-1.5-1.5s.671-1.5 1.5-1.5h15c.829 0 1.5.671 1.5 1.5s-.671 1.5-1.5 1.5zM46.054 45.201h-20c-.829 0-1.5-.671-1.5-1.5s.671-1.5 1.5-1.5h20c.829 0 1.5.671 1.5 1.5s-.671 1.5-1.5 1.5zM67.554 45.201h-15c-.829 0-1.5-.671-1.5-1.5s.671-1.5 1.5-1.5h15c.829 0 1.5.671 1.5 1.5s-.671 1.5-1.5 1.5z"/></svg>