<svg xmlns="http://www.w3.org/2000/svg" viewBox="0 0 74 74"><path d="M49.5 43.9c5.9 0 10.7-4.8 10.7-10.7s-4.8-10.7-10.7-10.7h-.1C48.5 14 41.2 7.4 32.5 7.4c-6.9 0-12.9 4.1-15.5 10h-.3c-7.3 0-13.2 5.9-13.2 13.2 0 7.3 5.9 13.2 13.2 13.2" fill="#fff"/><linearGradient id="a" gradientUnits="userSpaceOnUse" x1="42.2875" y1="46.475" x2="62.6125" y2="26.15"><stop offset="0" stop-color="#cfe7f7"/><stop offset="1" stop-color="#e1edf8"/></linearGradient><path d="M63.8 43.9c3.7 0 6.7-3 6.7-6.7s-3-6.7-6.7-6.7h-.1c-.6-5.3-5.1-9.5-10.6-9.5-4.3 0-8.1 2.6-9.8 6.3h-.2c-4.6 0-8.3 3.7-8.3 8.3 0 4.6 3.7 8.3 8.3 8.3" fill="url(#a)"/><linearGradient id="b" gradientUnits="userSpaceOnUse" x1="7.3567" y1="58.8923" x2="17.8562" y2="58.8923"><stop offset="0" stop-color="#00adee"/><stop offset="1" stop-color="#00bcf1"/></linearGradient><path d="M9.4 66.5c-.3 0-.7-.1-1-.3-1-.6-1.3-1.8-.7-2.7l6.5-11.3c.6-1 1.8-1.3 2.7-.7 1 .6 1.3 1.8.7 2.7l-6.5 11.3c-.4.7-1.1 1-1.7 1z" fill="url(#b)"/><linearGradient id="c" gradientUnits="userSpaceOnUse" x1="18.491" y1="58.8923" x2="28.9905" y2="58.8923"><stop offset="0" stop-color="#00adee"/><stop offset="1" stop-color="#00bcf1"/></linearGradient><path d="M20.5 66.5c-.3 0-.7-.1-1-.3-1-.6-1.3-1.8-.7-2.7l6.5-11.3c.6-1 1.8-1.3 2.7-.7 1 .6 1.3 1.8.7 2.7l-6.5 11.3c-.3.7-1 1-1.7 1z" fill="url(#c)"/><linearGradient id="d" gradientUnits="userSpaceOnUse" x1="29.6253" y1="58.8923" x2="40.1247" y2="58.8923"><stop offset="0" stop-color="#00adee"/><stop offset="1" stop-color="#00bcf1"/></linearGradient><path d="M31.6 66.5c-.3 0-.7-.1-1-.3-1-.6-1.3-1.8-.7-2.7l6.5-11.3c.6-1 1.8-1.3 2.7-.7 1 .6 1.3 1.8.7 2.7l-6.5 11.3c-.3.7-1 1-1.7 1z" fill="url(#d)"/></svg>