<!--Generator: Adobe Illustrator 21.0.2, SVG Export Plug-In . SVG Version: 6.00 Build 0)--><svg version="1.1" id="Layer_1" xmlns="http://www.w3.org/2000/svg" x="0" y="0" viewBox="0 0 74 74" xml:space="preserve"><g id="Severe_Thunderstorm"><linearGradient id="SVGID_1_" gradientUnits="userSpaceOnUse" x1="19.3304" y1="62.1997" x2="38.538" y2="42.992"><stop offset="0" stop-color="#fcb627"/><stop offset="1" stop-color="#ffcd22"/></linearGradient><path d="M31.1 40.2c-1.6 0-3.7 1.2-4.5 2.6l-5.3 9.1c-.8 1.4-.2 2.5 1.5 2.4l4.3-.3c1.6-.1 2.3 1 1.6 2.4l-4.8 8.8c-.8 1.4-.4 1.8.9.7l17.3-14.2c1.3-1 1-1.8-.7-1.8l-6.6.3c-1.6.1-2.3-1-1.5-2.4l2.9-5c.8-1.4.2-2.6-1.5-2.6h-3.6z" fill="url(#SVGID_1_)"/><path d="M49.5 43.9c5.9 0 10.7-4.8 10.7-10.7s-4.8-10.7-10.7-10.7h-.1C48.5 14 41.2 7.4 32.5 7.4c-6.9 0-12.9 4.1-15.5 10h-.3c-7.3 0-13.2 5.9-13.2 13.2 0 7.3 5.9 13.2 13.2 13.2" fill="#fff"/><linearGradient id="SVGID_2_" gradientUnits="userSpaceOnUse" x1="42.2875" y1="46.4738" x2="62.6125" y2="26.1488"><stop offset="0" stop-color="#cfe7f7"/><stop offset="1" stop-color="#e1edf8"/></linearGradient><path d="M63.8 43.9c3.7 0 6.7-3 6.7-6.7s-3-6.7-6.7-6.7h-.1c-.6-5.3-5.1-9.5-10.6-9.5-4.3 0-8.1 2.6-9.8 6.3h-.2c-4.6 0-8.3 3.7-8.3 8.3 0 4.6 3.7 8.3 8.3 8.3" fill="url(#SVGID_2_)"/></g></svg>