<!--Generator: Adobe Illustrator 21.0.2, SVG Export Plug-In . SVG Version: 6.00 Build 0)--><svg xmlns="http://www.w3.org/2000/svg" viewBox="0 0 74 74"><linearGradient id="a" gradientUnits="userSpaceOnUse" x1="15.5" y1="20.2499" x2="58.5" y2="20.2499"><stop offset="0" stop-color="#cfe7f7"/><stop offset="1" stop-color="#e1edf8"/></linearGradient><path fill="url(#a)" d="M56.5 22.25h-39c-1.104 0-2-.896-2-2s.896-2 2-2h39c1.104 0 2 .896 2 2s-.896 2-2 2z"/><linearGradient id="b" gradientUnits="userSpaceOnUse" x1="51.3888" y1="24.2452" x2="51.3888" y2="24.2452"><stop offset="0" stop-color="#cfe7f7"/><stop offset="1" stop-color="#e1edf8"/></linearGradient><linearGradient id="c" gradientUnits="userSpaceOnUse" x1="23.4998" y1="13.2501" x2="23.4998" y2="13.2501"><stop offset="0" stop-color="#cfe7f7"/><stop offset="1" stop-color="#e1edf8"/></linearGradient><linearGradient id="d" gradientUnits="userSpaceOnUse" x1="23.5" y1="29.8749" x2="48.5" y2="29.8749"><stop offset="0" stop-color="#cfe7f7"/><stop offset="1" stop-color="#e1edf8"/></linearGradient><path fill="url(#d)" d="M46.5 31.875h-21c-1.104 0-2-.896-2-2s.896-2 2-2h21c1.104 0 2 .896 2 2s-.896 2-2 2z"/><linearGradient id="e" gradientUnits="userSpaceOnUse" x1="29.5" y1="39.4999" x2="51.5" y2="39.4999"><stop offset="0" stop-color="#cfe7f7"/><stop offset="1" stop-color="#e1edf8"/></linearGradient><path fill="url(#e)" d="M49.5 41.5h-18c-1.104 0-2-.896-2-2s.896-2 2-2h18c1.104 0 2 .896 2 2s-.896 2-2 2z"/><linearGradient id="f" gradientUnits="userSpaceOnUse" x1="29.5" y1="49.1249" x2="45.5" y2="49.1249"><stop offset="0" stop-color="#cfe7f7"/><stop offset="1" stop-color="#e1edf8"/></linearGradient><path fill="url(#f)" d="M43.5 51.125h-12c-1.104 0-2-.896-2-2s.896-2 2-2h12c1.104 0 2 .896 2 2s-.896 2-2 2z"/><linearGradient id="g" gradientUnits="userSpaceOnUse" x1="31" y1="58.7499" x2="36" y2="58.7499"><stop offset="0" stop-color="#cfe7f7"/><stop offset="1" stop-color="#e1edf8"/></linearGradient><path fill="url(#g)" d="M34 60.75h-1c-1.104 0-2-.896-2-2s.896-2 2-2h1c1.104 0 2 .896 2 2s-.896 2-2 2z"/></svg>